<?xml version="1.0" encoding="utf-8"?>
<!-- Svg Vector Icons : http://www.onlinewebfonts.com/icon -->
<!DOCTYPE svg PUBLIC "-//W3C//DTD SVG 1.1//EN" "http://www.w3.org/Graphics/SVG/1.1/DTD/svg11.dtd">
<svg version="1.1" xmlns="http://www.w3.org/2000/svg" xmlns:xlink="http://www.w3.org/1999/xlink" x="0px" y="0px" viewBox="0 0 1000 1000" enable-background="new 0 0 1000 1000" xml:space="preserve">
<metadata> Svg Vector Icons : http://www.onlinewebfonts.com/icon </metadata>
<g><path d="M894.7,10H105.3C52.7,10,10,52.7,10,105.3v789.4c0,52.6,42.7,95.3,95.3,95.3h461.8V616.4H441.3V470.8h125.7V363.4c0-124.6,76.1-192.5,187.2-192.5c53.3,0,99,4,112.3,5.7v130.2l-77,0c-60.4,0-72.2,28.7-72.2,70.9v93h144.2l-18.8,145.6H717.4V990h177.3c52.6,0,95.3-42.7,95.3-95.3V105.3C990,52.7,947.3,10,894.7,10z"/></g>
</svg>